# xmcd CD database file
#
# Track frame offsets:
#	150
#	19977
#	55587
#
# Disc length: 1005 seconds
#
# Revision: 0
# Processed by: cddbd v1.5PL3 Copyright (c) Steve Scherf et al.
# Submitted via: CDex 1.51
#
DISCID=1c03eb03
DTITLE=ABYSS - Blue rain
DYEAR=1998
DGENRE=JPop
TTITLE0=Blue rain
TTITLE1=Blue rain 〜logical hysteria mix〜
TTITLE2=Blue rain 〜back track〜
EXTD=YEAR: 1998
EXTT0=
EXTT1=
EXTT2=
PLAYORDER=
